<?xml version="1.0" standalone="no"?><!DOCTYPE svg PUBLIC "-//W3C//DTD SVG 1.1//EN" "http://www.w3.org/Graphics/SVG/1.1/DTD/svg11.dtd"><svg t="1780592075491" class="icon" viewBox="0 0 1228 1024" version="1.1" xmlns="http://www.w3.org/2000/svg" p-id="1143" xmlns:xlink="http://www.w3.org/1999/xlink" width="239.84375" height="200"><path d="M1196.987733 212.5824v540.0576c0 39.594667-34.474667 71.3728-76.765866 71.3728H323.242667c-51.780267 0-88.746667-46.762667-73.250134-92.808533l126.737067-375.808H70.417067C31.675733 355.362133 0 326.4512 0 291.089067V98.372267C0 63.044267 31.675733 34.0992 70.417067 34.0992h378.811733c26.7264 0 51.029333 13.9264 63.010133 35.703467l39.048534 71.406933H1120.256c42.257067 0 76.8 32.119467 76.8 71.3728" fill="#5398DF" p-id="1144"></path><path d="M1128.721067 997.853867H68.266667a68.266667 68.266667 0 0 1-68.266667-68.266667V280.3712a68.266667 68.266667 0 0 1 68.266667-68.266667h1060.4544a68.266667 68.266667 0 0 1 68.266666 68.266667V929.5872a68.266667 68.266667 0 0 1-68.266666 68.266667" fill="#85BCFF" p-id="1145"></path><path d="M553.984 643.072c0-7.509333 6.144-13.653333 13.653333-13.653333h16.042667c7.509333 0 13.994667 6.144 13.994667 13.653333v16.042667c0 7.509333-6.485333 13.653333-13.994667 13.653333h-16.042667c-7.509333 0-13.653333-6.144-13.653333-13.653333v-16.042667z m0-76.117333c0-7.850667 6.144-13.994667 13.653333-13.994667h16.042667c7.509333 0 13.994667 6.144 13.994667 13.994667v15.701333c0 7.850667-6.485333 13.994667-13.994667 13.994667h-16.042667c-7.509333 0-13.653333-6.144-13.653333-13.994667v-15.701333z m0-76.458667c0-7.509333 6.144-13.653333 13.653333-13.653333h16.042667c7.509333 0 13.994667 6.144 13.994667 13.653333v16.042667c0 7.509333-6.485333 13.994667-13.994667 13.994666h-16.042667a13.994667 13.994667 0 0 1-13.653333-13.994666v-16.042667z m79.189333 152.576c0-7.509333 6.485333-13.653333 13.994667-13.653333h16.042667c7.509333 0 13.653333 6.144 13.653333 13.653333v16.042667c0 7.509333-6.144 13.653333-13.653333 13.653333h-16.042667a13.994667 13.994667 0 0 1-13.994667-13.653333v-16.042667z m0-76.117333c0-7.850667 6.485333-13.994667 13.994667-13.994667h16.042667c7.509333 0 13.653333 6.144 13.653333 13.994667v15.701333c0 7.850667-6.144 13.994667-13.653333 13.994667h-16.042667c-7.509333 0-13.994667-6.144-13.994667-13.994667v-15.701333z m0-76.458667c0-7.509333 6.485333-13.653333 13.994667-13.653333h16.042667c7.509333 0 13.653333 6.144 13.653333 13.653333v16.042667c0 7.509333-6.144 13.994667-13.653333 13.994666h-16.042667c-7.509333 0-13.994667-6.485333-13.994667-13.994666v-16.042667z m139.946667 233.472h-24.917333V446.464C748.202667 425.984 731.477333 409.6 711.338667 409.6H520.533333c-20.138667 0-36.864 16.384-36.864 36.864v277.504H458.752c-8.533333 0-15.018667 6.826667-15.018667 15.018667v23.210666c0 8.192 6.485333 15.018667 15.018667 15.018667h314.368c8.533333 0 15.36-6.826667 15.36-15.018667v-23.210666c0-8.192-6.826667-15.018667-15.36-15.018667z" fill="#5287D0" p-id="1146"></path></svg>